<?xml version="1.0" standalone="no"?>
<!DOCTYPE svg PUBLIC "-//W3C//DTD SVG 1.1//EN" 
  "http://www.w3.org/Graphics/SVG/1.1/DTD/svg11.dtd">
<svg viewBox="-80 -80 160 160" width="160mm" height="160mm"
     xmlns="http://www.w3.org/2000/svg" version="1.1"
     xmlns:xlink="http://www.w3.org/1999/xlink">
<circle cx="0" cy="0" r="42.5" fill="none" stroke="black"/>
<defs><path id="napis" d="M -38,0 A 38,38 0 0,0 38,0"/></defs>
<circle cx='0' cy='0' r='2' fill='none' stroke='black' stroke-width='0.2' />
<circle cx='0' cy='0' r='12' fill='none' stroke='black' stroke-width='0.2' />
<circle cx='0' cy='0' r='13' fill='none' stroke='black' stroke-width='0.2' />
<circle cx='0' cy='0' r='14' fill='none' stroke='black' stroke-width='0.2' />
<circle cx='0' cy='0' r='15' fill='none' stroke='black' stroke-width='0.2' />
<circle cx='0' cy='0' r='16' fill='none' stroke='black' stroke-width='0.2' />
<circle cx='0' cy='0' r='17' fill='none' stroke='black' stroke-width='0.2' />
<circle cx='0' cy='0' r='20' fill='none' stroke='black' stroke-width='0.2' />
<circle cx='0' cy='0' r='25' fill='none' stroke='black' stroke-width='0.2' />
<circle cx='0' cy='0' r='30' fill='none' stroke='black' stroke-width='0.2' />
<circle cx='0' cy='0' r='35' fill='none' stroke='black' stroke-width='0.2' />
<circle cx='0' cy='0' r='40' fill='none' stroke='black' stroke-width='0.2' />
<line x1='-42.5' y1='0' x2='42.5' y2='0' stroke='red' stroke-width='0.2' />
<line x1='0' y1='-42.5' x2='0' y2='42.5' stroke='red' stroke-width='0.2' />
<path d="M 53.000000,-0.000000 A53.000000,53.000000 0 0,0 52.949556,-2.311828  L49.952411,-2.180969 A50.000000,50.000000 0 0,1 50.000000,-0.000000  z" fill="black" />
<path d="M 52.798319,-4.619254 A53.000000,53.000000 0 0,0 52.546578,-6.917888  L49.572243,-6.526310 A50.000000,50.000000 0 0,1 49.809735,-4.357787  z" fill="black" />
<path d="M 52.194811,-9.203353 A53.000000,53.000000 0 0,0 51.743688,-11.471300  L48.814800,-10.821981 A50.000000,50.000000 0 0,1 49.240388,-8.682409  z" fill="black" />
<path d="M 51.194069,-13.717409 A53.000000,53.000000 0 0,0 50.546998,-15.937407  L47.685848,-15.035290 A50.000000,50.000000 0 0,1 48.296291,-12.940952  z" fill="black" />
<path d="M 49.803709,-18.127068 A53.000000,53.000000 0 0,0 48.965615,-20.282222  L46.193977,-19.134172 A50.000000,50.000000 0 0,1 46.984631,-17.101007  z" fill="black" />
<path d="M 48.034313,-22.398768 A53.000000,53.000000 0 0,0 47.011574,-24.472677  L44.350542,-23.087431 A50.000000,50.000000 0 0,1 45.315389,-21.130913  z" fill="black" />
<path d="M 45.899346,-26.500000 A53.000000,53.000000 0 0,0 44.699747,-28.476879  L42.169572,-26.864980 A50.000000,50.000000 0 0,1 43.301270,-25.000000  z" fill="black" />
<path d="M 43.415058,-30.399551 A53.000000,53.000000 0 0,0 42.047727,-32.264356  L39.667667,-30.438071 A50.000000,50.000000 0 0,1 40.957602,-28.678822  z" fill="black" />
<path d="M 40.600355,-34.067743 A53.000000,53.000000 0 0,0 39.075699,-35.806281  L36.863867,-33.779510 A50.000000,50.000000 0 0,1 38.302222,-32.139380  z" fill="black" />
<path d="M 37.476659,-37.476659 A53.000000,53.000000 0 0,0 35.806281,-39.075699  L33.779510,-36.863867 A50.000000,50.000000 0 0,1 35.355339,-35.355339  z" fill="black" />
<path d="M 34.067743,-40.600355 A53.000000,53.000000 0 0,0 32.264356,-42.047727  L30.438071,-39.667667 A50.000000,50.000000 0 0,1 32.139380,-38.302222  z" fill="black" />
<path d="M 30.399551,-43.415058 A53.000000,53.000000 0 0,0 28.476879,-44.699747  L26.864980,-42.169572 A50.000000,50.000000 0 0,1 28.678822,-40.957602  z" fill="black" />
<path d="M 26.500000,-45.899346 A53.000000,53.000000 0 0,0 24.472677,-47.011574  L23.087431,-44.350542 A50.000000,50.000000 0 0,1 25.000000,-43.301270  z" fill="black" />
<path d="M 22.398768,-48.034313 A53.000000,53.000000 0 0,0 20.282222,-48.965615  L19.134172,-46.193977 A50.000000,50.000000 0 0,1 21.130913,-45.315389  z" fill="black" />
<path d="M 18.127068,-49.803709 A53.000000,53.000000 0 0,0 15.937407,-50.546998  L15.035290,-47.685848 A50.000000,50.000000 0 0,1 17.101007,-46.984631  z" fill="black" />
<path d="M 13.717409,-51.194069 A53.000000,53.000000 0 0,0 11.471300,-51.743688  L10.821981,-48.814800 A50.000000,50.000000 0 0,1 12.940952,-48.296291  z" fill="black" />
<path d="M 9.203353,-52.194811 A53.000000,53.000000 0 0,0 6.917888,-52.546578  L6.526310,-49.572243 A50.000000,50.000000 0 0,1 8.682409,-49.240388  z" fill="black" />
<path d="M 4.619254,-52.798319 A53.000000,53.000000 0 0,0 2.311828,-52.949556  L2.180969,-49.952411 A50.000000,50.000000 0 0,1 4.357787,-49.809735  z" fill="black" />
<path d="M 0.000000,-53.000000 A53.000000,53.000000 0 0,0 -2.311828,-52.949556  L-2.180969,-49.952411 A50.000000,50.000000 0 0,1 0.000000,-50.000000  z" fill="black" />
<path d="M -4.619254,-52.798319 A53.000000,53.000000 0 0,0 -6.917888,-52.546578  L-6.526310,-49.572243 A50.000000,50.000000 0 0,1 -4.357787,-49.809735  z" fill="black" />
<path d="M -9.203353,-52.194811 A53.000000,53.000000 0 0,0 -11.471300,-51.743688  L-10.821981,-48.814800 A50.000000,50.000000 0 0,1 -8.682409,-49.240388  z" fill="black" />
<path d="M -13.717409,-51.194069 A53.000000,53.000000 0 0,0 -15.937407,-50.546998  L-15.035290,-47.685848 A50.000000,50.000000 0 0,1 -12.940952,-48.296291  z" fill="black" />
<path d="M -18.127068,-49.803709 A53.000000,53.000000 0 0,0 -20.282222,-48.965615  L-19.134172,-46.193977 A50.000000,50.000000 0 0,1 -17.101007,-46.984631  z" fill="black" />
<path d="M -22.398768,-48.034313 A53.000000,53.000000 0 0,0 -24.472676,-47.011574  L-23.087431,-44.350542 A50.000000,50.000000 0 0,1 -21.130913,-45.315389  z" fill="black" />
<path d="M -26.500000,-45.899346 A53.000000,53.000000 0 0,0 -28.476879,-44.699747  L-26.864980,-42.169572 A50.000000,50.000000 0 0,1 -25.000000,-43.301270  z" fill="black" />
<path d="M -30.399551,-43.415058 A53.000000,53.000000 0 0,0 -32.264356,-42.047727  L-30.438071,-39.667667 A50.000000,50.000000 0 0,1 -28.678822,-40.957602  z" fill="black" />
<path d="M -34.067743,-40.600355 A53.000000,53.000000 0 0,0 -35.806281,-39.075699  L-33.779510,-36.863867 A50.000000,50.000000 0 0,1 -32.139380,-38.302222  z" fill="black" />
<path d="M -37.476659,-37.476659 A53.000000,53.000000 0 0,0 -39.075699,-35.806281  L-36.863867,-33.779510 A50.000000,50.000000 0 0,1 -35.355339,-35.355339  z" fill="black" />
<path d="M -40.600355,-34.067743 A53.000000,53.000000 0 0,0 -42.047727,-32.264356  L-39.667667,-30.438071 A50.000000,50.000000 0 0,1 -38.302222,-32.139380  z" fill="black" />
<path d="M -43.415058,-30.399551 A53.000000,53.000000 0 0,0 -44.699747,-28.476879  L-42.169572,-26.864980 A50.000000,50.000000 0 0,1 -40.957602,-28.678822  z" fill="black" />
<path d="M -45.899346,-26.500000 A53.000000,53.000000 0 0,0 -47.011574,-24.472677  L-44.350542,-23.087431 A50.000000,50.000000 0 0,1 -43.301270,-25.000000  z" fill="black" />
<path d="M -48.034313,-22.398768 A53.000000,53.000000 0 0,0 -48.965615,-20.282222  L-46.193977,-19.134172 A50.000000,50.000000 0 0,1 -45.315389,-21.130913  z" fill="black" />
<path d="M -49.803709,-18.127068 A53.000000,53.000000 0 0,0 -50.546998,-15.937407  L-47.685848,-15.035290 A50.000000,50.000000 0 0,1 -46.984631,-17.101007  z" fill="black" />
<path d="M -51.194069,-13.717409 A53.000000,53.000000 0 0,0 -51.743688,-11.471300  L-48.814800,-10.821981 A50.000000,50.000000 0 0,1 -48.296291,-12.940952  z" fill="black" />
<path d="M -52.194811,-9.203353 A53.000000,53.000000 0 0,0 -52.546578,-6.917888  L-49.572243,-6.526310 A50.000000,50.000000 0 0,1 -49.240388,-8.682409  z" fill="black" />
<path d="M -52.798319,-4.619254 A53.000000,53.000000 0 0,0 -52.949556,-2.311828  L-49.952411,-2.180969 A50.000000,50.000000 0 0,1 -49.809735,-4.357787  z" fill="black" />
<path d="M -53.000000,-0.000000 A53.000000,53.000000 0 0,0 -52.949556,2.311828  L-49.952411,2.180969 A50.000000,50.000000 0 0,1 -50.000000,-0.000000  z" fill="black" />
<path d="M -52.798319,4.619254 A53.000000,53.000000 0 0,0 -52.546578,6.917888  L-49.572243,6.526310 A50.000000,50.000000 0 0,1 -49.809735,4.357787  z" fill="black" />
<path d="M -52.194811,9.203353 A53.000000,53.000000 0 0,0 -51.743688,11.471300  L-48.814800,10.821981 A50.000000,50.000000 0 0,1 -49.240388,8.682409  z" fill="black" />
<path d="M -51.194069,13.717409 A53.000000,53.000000 0 0,0 -50.546998,15.937407  L-47.685848,15.035290 A50.000000,50.000000 0 0,1 -48.296291,12.940952  z" fill="black" />
<path d="M -49.803709,18.127068 A53.000000,53.000000 0 0,0 -48.965615,20.282222  L-46.193977,19.134172 A50.000000,50.000000 0 0,1 -46.984631,17.101007  z" fill="black" />
<path d="M -48.034313,22.398768 A53.000000,53.000000 0 0,0 -47.011574,24.472676  L-44.350542,23.087431 A50.000000,50.000000 0 0,1 -45.315389,21.130913  z" fill="black" />
<path d="M -45.899346,26.500000 A53.000000,53.000000 0 0,0 -44.699747,28.476879  L-42.169572,26.864980 A50.000000,50.000000 0 0,1 -43.301270,25.000000  z" fill="black" />
<path d="M -43.415058,30.399551 A53.000000,53.000000 0 0,0 -42.047727,32.264356  L-39.667667,30.438071 A50.000000,50.000000 0 0,1 -40.957602,28.678822  z" fill="black" />
<path d="M -40.600355,34.067743 A53.000000,53.000000 0 0,0 -39.075699,35.806281  L-36.863867,33.779510 A50.000000,50.000000 0 0,1 -38.302222,32.139380  z" fill="black" />
<path d="M -37.476659,37.476659 A53.000000,53.000000 0 0,0 -35.806281,39.075699  L-33.779510,36.863867 A50.000000,50.000000 0 0,1 -35.355339,35.355339  z" fill="black" />
<path d="M -34.067743,40.600355 A53.000000,53.000000 0 0,0 -32.264356,42.047727  L-30.438071,39.667667 A50.000000,50.000000 0 0,1 -32.139380,38.302222  z" fill="black" />
<path d="M -30.399551,43.415058 A53.000000,53.000000 0 0,0 -28.476879,44.699747  L-26.864980,42.169572 A50.000000,50.000000 0 0,1 -28.678822,40.957602  z" fill="black" />
<path d="M -26.500000,45.899346 A53.000000,53.000000 0 0,0 -24.472677,47.011574  L-23.087431,44.350542 A50.000000,50.000000 0 0,1 -25.000000,43.301270  z" fill="black" />
<path d="M -22.398768,48.034313 A53.000000,53.000000 0 0,0 -20.282222,48.965615  L-19.134172,46.193977 A50.000000,50.000000 0 0,1 -21.130913,45.315389  z" fill="black" />
<path d="M -18.127068,49.803709 A53.000000,53.000000 0 0,0 -15.937407,50.546998  L-15.035290,47.685848 A50.000000,50.000000 0 0,1 -17.101007,46.984631  z" fill="black" />
<path d="M -13.717409,51.194069 A53.000000,53.000000 0 0,0 -11.471300,51.743688  L-10.821981,48.814800 A50.000000,50.000000 0 0,1 -12.940952,48.296291  z" fill="black" />
<path d="M -9.203353,52.194811 A53.000000,53.000000 0 0,0 -6.917888,52.546578  L-6.526310,49.572243 A50.000000,50.000000 0 0,1 -8.682409,49.240388  z" fill="black" />
<path d="M -4.619254,52.798319 A53.000000,53.000000 0 0,0 -2.311828,52.949556  L-2.180969,49.952411 A50.000000,50.000000 0 0,1 -4.357787,49.809735  z" fill="black" />
<path d="M -0.000000,53.000000 A53.000000,53.000000 0 0,0 2.311828,52.949556  L2.180969,49.952411 A50.000000,50.000000 0 0,1 -0.000000,50.000000  z" fill="black" />
<path d="M 4.619254,52.798319 A53.000000,53.000000 0 0,0 6.917888,52.546578  L6.526310,49.572243 A50.000000,50.000000 0 0,1 4.357787,49.809735  z" fill="black" />
<path d="M 9.203353,52.194811 A53.000000,53.000000 0 0,0 11.471300,51.743688  L10.821981,48.814800 A50.000000,50.000000 0 0,1 8.682409,49.240388  z" fill="black" />
<path d="M 13.717409,51.194069 A53.000000,53.000000 0 0,0 15.937407,50.546998  L15.035290,47.685848 A50.000000,50.000000 0 0,1 12.940952,48.296291  z" fill="black" />
<path d="M 18.127068,49.803709 A53.000000,53.000000 0 0,0 20.282222,48.965615  L19.134172,46.193977 A50.000000,50.000000 0 0,1 17.101007,46.984631  z" fill="black" />
<path d="M 22.398768,48.034313 A53.000000,53.000000 0 0,0 24.472676,47.011574  L23.087431,44.350542 A50.000000,50.000000 0 0,1 21.130913,45.315389  z" fill="black" />
<path d="M 26.500000,45.899346 A53.000000,53.000000 0 0,0 28.476879,44.699747  L26.864980,42.169572 A50.000000,50.000000 0 0,1 25.000000,43.301270  z" fill="black" />
<path d="M 30.399551,43.415058 A53.000000,53.000000 0 0,0 32.264356,42.047727  L30.438071,39.667667 A50.000000,50.000000 0 0,1 28.678822,40.957602  z" fill="black" />
<path d="M 34.067743,40.600355 A53.000000,53.000000 0 0,0 35.806281,39.075699  L33.779510,36.863867 A50.000000,50.000000 0 0,1 32.139380,38.302222  z" fill="black" />
<path d="M 37.476659,37.476659 A53.000000,53.000000 0 0,0 39.075699,35.806281  L36.863867,33.779510 A50.000000,50.000000 0 0,1 35.355339,35.355339  z" fill="black" />
<path d="M 40.600355,34.067743 A53.000000,53.000000 0 0,0 42.047727,32.264356  L39.667667,30.438071 A50.000000,50.000000 0 0,1 38.302222,32.139380  z" fill="black" />
<path d="M 43.415058,30.399551 A53.000000,53.000000 0 0,0 44.699747,28.476879  L42.169572,26.864980 A50.000000,50.000000 0 0,1 40.957602,28.678822  z" fill="black" />
<path d="M 45.899346,26.500000 A53.000000,53.000000 0 0,0 47.011574,24.472677  L44.350542,23.087431 A50.000000,50.000000 0 0,1 43.301270,25.000000  z" fill="black" />
<path d="M 48.034313,22.398768 A53.000000,53.000000 0 0,0 48.965615,20.282222  L46.193977,19.134172 A50.000000,50.000000 0 0,1 45.315389,21.130913  z" fill="black" />
<path d="M 49.803709,18.127068 A53.000000,53.000000 0 0,0 50.546998,15.937407  L47.685848,15.035290 A50.000000,50.000000 0 0,1 46.984631,17.101007  z" fill="black" />
<path d="M 51.194069,13.717409 A53.000000,53.000000 0 0,0 51.743688,11.471300  L48.814800,10.821981 A50.000000,50.000000 0 0,1 48.296291,12.940952  z" fill="black" />
<path d="M 52.194811,9.203353 A53.000000,53.000000 0 0,0 52.546578,6.917888  L49.572243,6.526310 A50.000000,50.000000 0 0,1 49.240388,8.682409  z" fill="black" />
<path d="M 52.798319,4.619254 A53.000000,53.000000 0 0,0 52.949556,2.311828  L49.952411,2.180969 A50.000000,50.000000 0 0,1 49.809735,4.357787  z" fill="black" />
<path d="M 50.000000,-0.000000 A50.000000,50.000000 0 0,0 0.000000,-50.000000  L0.000000,-43.000000 A43.000000,43.000000 0 0,1 43.000000,-0.000000  z" fill="black" />
<path d="M -50.000000,-0.000000 A50.000000,50.000000 0 0,0 -0.000000,50.000000  L-0.000000,43.000000 A43.000000,43.000000 0 0,1 -43.000000,-0.000000  z" fill="black" />
<text style="font: 12px sans-serif;" fill="blue"><textPath xlink:href="#napis">72/2</textPath></text>
</svg>
